<?xml version="1.0" encoding="UTF-8" standalone="no"?>
<svg
   xmlns:dc="http://purl.org/dc/elements/1.1/"
   xmlns:cc="http://creativecommons.org/ns#"
   xmlns:rdf="http://www.w3.org/1999/02/22-rdf-syntax-ns#"
   xmlns:svg="http://www.w3.org/2000/svg"
   xmlns="http://www.w3.org/2000/svg"
   xmlns:sodipodi="http://sodipodi.sourceforge.net/DTD/sodipodi-0.dtd"
   xmlns:inkscape="http://www.inkscape.org/namespaces/inkscape"
   width="32"
   height="31.999994"
   viewBox="0 0 5.12 5.1199991"
   aria-hidden="true"
   role="img"
   class="iconify iconify--noto"
   preserveAspectRatio="xMidYMid meet"
   version="1.1"
   id="svg10"
   sodipodi:docname="checkmark.svg"
   inkscape:version="1.0 (4035a4fb49, 2020-05-01)">
  <metadata
     id="metadata16">
    <rdf:RDF>
      <cc:Work
         rdf:about="">
        <dc:format>image/svg+xml</dc:format>
        <dc:type
           rdf:resource="http://purl.org/dc/dcmitype/StillImage" />
      </cc:Work>
    </rdf:RDF>
  </metadata>
  <defs
     id="defs14" />
  <sodipodi:namedview
     inkscape:document-rotation="0"
     pagecolor="#ffffff"
     bordercolor="#666666"
     borderopacity="1"
     objecttolerance="10"
     gridtolerance="10"
     guidetolerance="10"
     inkscape:pageopacity="0"
     inkscape:pageshadow="2"
     inkscape:window-width="1920"
     inkscape:window-height="1001"
     id="namedview12"
     showgrid="false"
     inkscape:zoom="1.0169672"
     inkscape:cx="372.12514"
     inkscape:cy="356.19002"
     inkscape:window-x="1911"
     inkscape:window-y="-9"
     inkscape:window-maximized="1"
     inkscape:current-layer="svg10" />
  <g
     id="g845"
     transform="matrix(0.04266666,0,0,0.04266666,-0.19029235,-0.16895997)">
    <path
       style="fill:#00cc00;fill-opacity:1"
       id="path2"
       fill="#689f38"
       d="m 116.46,3.96 h -104 c -4.42,0 -8,3.58 -8,8 v 104 c 0,4.42 3.58,8 8,8 h 104 c 4.42,0 8,-3.58 8,-8 v -104 c 0,-4.42 -3.58,-8 -8,-8 z" />
    <path
       style="fill:#00b200;fill-opacity:1"
       id="path4"
       fill="#7cb342"
       d="m 110.16,3.96 h -98.2 a 7.555,7.555 0 0 0 -7.5,7.5 v 97.9 c -0.01,4.14 3.34,7.49 7.48,7.5 h 98.12 c 4.14,0.01 7.49,-3.34 7.5,-7.48 V 11.46 c 0.09,-4.05 -3.13,-7.41 -7.18,-7.5 z" />
    <path
       id="path6"
       fill="#ffffff"
       opacity="0.3"
       d="m 40.16,12.86 c 0,-2.3 -1.6,-3 -10.8,-2.7 -7.7,0.3 -11.5,1.2 -13.8,4 -2.3,2.8 -2.9,8.5 -3,15.3 0,4.8 0,9.3 2.5,9.3 3.4,0 3.4,-7.9 6.2,-12.3 5.4,-8.7 18.9,-10.6 18.9,-13.6 z" />
    <path
       id="path8"
       fill="#fbf9f9"
       d="m 43.26,109.46 a 8.862,8.862 0 0 1 -8.7,-6.2 l -15.1,-45.5 c -1.46,-4.81 1.26,-9.9 6.07,-11.36 4.65,-1.41 9.59,1.08 11.23,5.66 l 9.8,29.5 47.1,-59.6 c 3.12,-3.95 8.85,-4.62 12.8,-1.5 3.95,3.12 4.62,8.85 1.5,12.8 l -57.6,72.7 a 9.086,9.086 0 0 1 -7.1,3.5 z" />
  </g>
</svg>
