<?xml version="1.0" encoding="UTF-8" standalone="no"?>
<svg
   xmlns:dc="http://purl.org/dc/elements/1.1/"
   xmlns:cc="http://creativecommons.org/ns#"
   xmlns:rdf="http://www.w3.org/1999/02/22-rdf-syntax-ns#"
   xmlns:svg="http://www.w3.org/2000/svg"
   xmlns="http://www.w3.org/2000/svg"
   xmlns:sodipodi="http://sodipodi.sourceforge.net/DTD/sodipodi-0.dtd"
   xmlns:inkscape="http://www.inkscape.org/namespaces/inkscape"
   inkscape:version="1.0 (4035a4fb49, 2020-05-01)"
   sodipodi:docname="first-quarter-moon-face-svgrepo-com.svg"
   id="svg28"
   version="1.1"
   preserveAspectRatio="xMidYMid meet"
   class="iconify iconify--noto"
   role="img"
   aria-hidden="true"
   viewBox="0 0 7.4508429 8.0000006"
   height="50.000004"
   width="46.567768">
  <metadata
     id="metadata34">
    <rdf:RDF>
      <cc:Work
         rdf:about="">
        <dc:format>image/svg+xml</dc:format>
        <dc:type
           rdf:resource="http://purl.org/dc/dcmitype/StillImage" />
      </cc:Work>
    </rdf:RDF>
  </metadata>
  <defs
     id="defs32" />
  <sodipodi:namedview
     inkscape:current-layer="svg28"
     inkscape:window-maximized="1"
     inkscape:window-y="-9"
     inkscape:window-x="1911"
     inkscape:cy="350.00692"
     inkscape:cx="320.17007"
     inkscape:zoom="0.50105147"
     showgrid="false"
     id="namedview30"
     inkscape:window-height="1001"
     inkscape:window-width="1920"
     inkscape:pageshadow="2"
     inkscape:pageopacity="0"
     guidetolerance="10"
     gridtolerance="10"
     objecttolerance="10"
     borderopacity="1"
     bordercolor="#666666"
     pagecolor="#ffffff" />
  <radialGradient
     gradientUnits="userSpaceOnUse"
     gradientTransform="matrix(-1,0,0,1.0553,128,-1.586)"
     r="40.935001"
     cy="28.695999"
     cx="44.646999"
     id="IconifyId17ecdb2904d178eab8761">
    <stop
       id="stop8"
       stop-color="#fff7b3"
       offset="0" />
    <stop
       id="stop10"
       stop-opacity="0"
       stop-color="#fff7b2"
       offset="1" />
  </radialGradient>
  <radialGradient
     gradientUnits="userSpaceOnUse"
     gradientTransform="matrix(0.9201,-0.3918,0.3131,0.7354,2233.814,-902.55)"
     r="16.135"
     cy="72.754997"
     cx="-2352.885"
     id="IconifyId17ecdb2904d178eab8762">
    <stop
       id="stop21"
       stop-color="#fbc02d"
       offset="0" />
    <stop
       id="stop23"
       stop-opacity="0"
       stop-color="#fbc02d"
       offset="1" />
  </radialGradient>
  <g
     transform="matrix(0.06666937,0,0,0.06666937,-0.54151515,-0.26689116)"
     id="g867">
    <path
       d="m 30.31,95.25 a 50.53,50.53 0 0 0 17.33,-3.6 c 1.79,-0.72 3.58,-1.47 5.28,-2.37 0.66,-0.35 1.49,-0.69 1.97,-1.29 0.43,-0.54 0.51,-1.27 0.73,-1.91 0.87,-2.54 2.99,-2.75 3.47,-2.99 1.3,-0.66 3.8,-2.51 3.07,-4.22 -0.47,-1.09 -7.77,-4.5 -6.28,-10.76 0.73,-3.05 2.98,-1.7 10.24,-4.34 3.11,-1.13 5.66,-3.46 7.63,-6.12 6.55,-8.81 7.17,-17.68 4.12,-28 C 75.45,21.45 70.94,13.92 64.88,7.89 63.35,6.37 64.57,3.77 66.71,4.02 97.59,7.61 121.33,34.56 119.81,66.73 118.36,97.29 93.72,122.17 63.18,123.9 40.1,125.2 19.65,113.5 8.47,95.44 c -1.13,-1.83 0.69,-4.04 2.71,-3.3 5.93,2.19 12.39,3.3 19.13,3.11 z"
       fill="#ffe558"
       id="path2" />
    <path
       d="m 30.31,95.25 a 50.53,50.53 0 0 0 17.33,-3.6 c 1.79,-0.72 3.58,-1.47 5.28,-2.37 0.66,-0.35 1.49,-0.69 1.97,-1.29 0.43,-0.54 0.51,-1.27 0.73,-1.91 0.87,-2.54 2.99,-2.75 3.47,-2.99 1.3,-0.66 3.8,-2.51 3.07,-4.22 -0.47,-1.09 -7.77,-4.5 -6.28,-10.76 0.73,-3.05 2.98,-1.7 10.24,-4.34 3.11,-1.13 5.66,-3.46 7.63,-6.12 6.55,-8.81 7.17,-17.68 4.12,-28 C 75.45,21.45 70.94,13.92 64.88,7.89 63.35,6.37 64.57,3.77 66.71,4.02 97.59,7.61 121.33,34.56 119.81,66.73 118.36,97.29 93.72,122.17 63.18,123.9 40.1,125.2 19.65,113.5 8.47,95.44 c -1.13,-1.83 0.69,-4.04 2.71,-3.3 5.93,2.19 12.39,3.3 19.13,3.11 z"
       fill="#ffe558"
       id="path4" />
    <path
       d="m 16.68,103.59 c 12.13,10.53 30.16,16.12 44.5,15.31 30.54,-1.73 55.18,-26.61 56.63,-57.17 0.41,-8.73 -1.3,-17.54 -4.69,-25.67 4.74,9.11 7.22,19.58 6.69,30.67 C 118.36,97.29 93.72,122.17 63.18,123.9 40.1,125.2 19.65,113.5 8.47,95.44 8.12,94.88 8.05,94.28 8.19,93.74 c 2.24,3.64 5.14,6.93 8.49,9.85 z"
       fill="#fbc02d"
       id="path6" />
    <path
       style="fill:url(#IconifyId17ecdb2904d178eab8761)"
       d="m 66.71,4.02 c 0,0 12.22,10.15 16.64,22.49 3.63,10.14 6.27,30.8 -17.73,39.31 l 17.21,16.73 c 0.6,-0.5 -0.05,-6.82 10.78,-12.14 3.32,-1.63 10.67,1.46 14.15,0.23 16.74,-5.93 7.71,-29.92 6.57,-32.09 C 96.64,4.62 66.71,4.02 66.71,4.02 Z"
       fill="url(#IconifyId17ecdb2904d178eab8761)"
       id="path13" />
    <path
       d="m 87.32,69.06 c -3.5,0.61 -6.3,-2.29 -6.68,-5.53 -0.3,-2.59 0.73,-4.97 1.96,-6.02 5.14,-4.39 15.08,0.01 14.81,8.69 -0.02,0.56 -0.22,1.15 -0.67,1.49 -0.38,-0.73 -1.07,-4.05 -4.08,-5.4 -0.22,-0.1 -0.51,-0.1 -0.71,0.04 -0.27,0.19 0.38,5.86 -4.63,6.73 z"
       fill="#5d4037"
       id="path15" />
    <path
       d="m 65.86,93.19 c 6.52,0 10.05,-2.89 11.61,-4.88 0.54,-0.68 0.38,-1.67 -0.32,-2.18 -0.47,-0.34 -1.1,-0.39 -1.61,-0.11 -4.83,2.67 -11.37,3.17 -16.86,0.31 -1.09,-0.57 -1.85,-1.94 -2.59,-1.22 -0.75,0.72 -0.51,2.48 0.28,3.59 1.28,1.83 3.87,4.49 9.49,4.49 z"
       fill="#5d4037"
       id="path17" />
    <path
       d="m 62.25,79.83 c 0.06,-0.32 0.04,-0.64 -0.1,-0.96 -0.47,-1.09 -7.77,-4.5 -6.28,-10.76 0.08,-0.32 0.17,-0.58 0.29,-0.81 l 0.03,0.02 c 0.48,2.75 2.43,5.11 4.85,6.51 0.73,0.42 1.5,0.77 2.16,1.29 0.66,0.52 1.21,1.26 1.25,2.1 0.06,1.07 -0.75,2.06 -1.74,2.47 -0.15,0.07 -0.3,0.1 -0.46,0.14 z"
       fill="#f2a600"
       id="path19" />
    <path
       style="fill:url(#IconifyId17ecdb2904d178eab8762)"
       d="m 82.83,82.55 c 1.55,3.75 7.63,4.79 13.58,2.32 5.95,-2.46 9.52,-7.5 7.97,-11.24 -1.55,-3.75 -7.63,-4.79 -13.58,-2.32 -5.95,2.46 -9.52,7.49 -7.97,11.24 z"
       fill="url(#IconifyId17ecdb2904d178eab8762)"
       id="path26" />
  </g>
</svg>
