<?xml version="1.0" encoding="UTF-8" standalone="no"?>
<svg
   xmlns:dc="http://purl.org/dc/elements/1.1/"
   xmlns:cc="http://creativecommons.org/ns#"
   xmlns:rdf="http://www.w3.org/1999/02/22-rdf-syntax-ns#"
   xmlns:svg="http://www.w3.org/2000/svg"
   xmlns="http://www.w3.org/2000/svg"
   xmlns:sodipodi="http://sodipodi.sourceforge.net/DTD/sodipodi-0.dtd"
   xmlns:inkscape="http://www.inkscape.org/namespaces/inkscape"
   inkscape:version="1.0 (4035a4fb49, 2020-05-01)"
   sodipodi:docname="sun-with-face-svgrepo-com.svg"
   id="svg48"
   version="1.1"
   preserveAspectRatio="xMidYMid meet"
   class="iconify iconify--noto"
   role="img"
   aria-hidden="true"
   viewBox="0 0 7.9999994 7.9999994"
   height="49.999996"
   width="49.999996">
  <metadata
     id="metadata54">
    <rdf:RDF>
      <cc:Work
         rdf:about="">
        <dc:format>image/svg+xml</dc:format>
        <dc:type
           rdf:resource="http://purl.org/dc/dcmitype/StillImage" />
      </cc:Work>
    </rdf:RDF>
  </metadata>
  <defs
     id="defs52" />
  <sodipodi:namedview
     inkscape:current-layer="svg48"
     inkscape:window-maximized="1"
     inkscape:window-y="-9"
     inkscape:window-x="1911"
     inkscape:cy="402.77793"
     inkscape:cx="563.19554"
     inkscape:zoom="0.70859379"
     showgrid="false"
     id="namedview50"
     inkscape:window-height="1001"
     inkscape:window-width="1920"
     inkscape:pageshadow="2"
     inkscape:pageopacity="0"
     guidetolerance="10"
     gridtolerance="10"
     objecttolerance="10"
     borderopacity="1"
     bordercolor="#666666"
     pagecolor="#ffffff" />
  <radialGradient
     gradientUnits="userSpaceOnUse"
     r="75.481003"
     cy="64"
     cx="64"
     id="IconifyId17ecdb2904d178eab20564">
    <stop
       id="stop4"
       stop-color="#ffb604"
       offset=".556" />
    <stop
       id="stop6"
       stop-color="#fec61b"
       offset=".691" />
    <stop
       id="stop8"
       stop-color="#fdd835"
       offset=".822" />
  </radialGradient>
  <radialGradient
     gradientUnits="userSpaceOnUse"
     gradientTransform="matrix(1,0,0,1.0876,0,-8.844)"
     r="66.57"
     cy="100.924"
     cx="66.147003"
     id="IconifyId17ecdb2904d178eab20565">
    <stop
       id="stop15"
       stop-color="#ffb604"
       offset=".694" />
    <stop
       id="stop17"
       stop-color="#fec61b"
       offset=".849" />
    <stop
       id="stop19"
       stop-color="#fdd835"
       offset="1" />
  </radialGradient>
  <radialGradient
     gradientUnits="userSpaceOnUse"
     gradientTransform="matrix(-0.7447,-0.3192,-0.3117,0.736,-1297.374,-633.673)"
     r="15.525"
     cy="139.608"
     cx="-1858.1591"
     id="IconifyId17ecdb2904d178eab20566">
    <stop
       id="stop34"
       stop-color="#ef6c00"
       offset="0" />
    <stop
       id="stop36"
       stop-opacity="0"
       stop-color="#ef6c00"
       offset="1" />
  </radialGradient>
  <radialGradient
     gradientUnits="userSpaceOnUse"
     gradientTransform="matrix(0.7447,-0.3192,0.3117,0.736,-63.29,127.89)"
     r="15.525"
     cy="-2.3169999"
     cx="200.244"
     id="IconifyId17ecdb2904d178eab20567">
    <stop
       id="stop41"
       stop-color="#ef6c00"
       offset="0" />
    <stop
       id="stop43"
       stop-opacity="0"
       stop-color="#ef6c00"
       offset="1" />
  </radialGradient>
  <g
     transform="matrix(0.06349206,0,0,0.06349206,-0.06349206,-0.06349206)"
     id="g902">
    <path
       d="M 126.99,80.89 108.1,64.13 108.16,63.83 127,47.14 102.17,42.05 102.1,41.93 110.1,17.88 86.08,25.9 85.96,25.82 80.86,1 64.01,20.03 H 63.99 L 47.11,1.01 42.03,25.89 41.97,25.92 17.9,17.88 l 8,24.05 c -0.04,0.04 -0.07,0.09 -0.11,0.13 l -24.78,5.05 19,16.87 -0.01,0.05 -19,16.83 24.89,5.11 0.02,0.04 -8.02,24.11 24.05,-8.03 0.1,0.08 5.1,24.83 16.84,-19.01 h 0.05 l 16.87,19 5.07,-24.86 0.07,-0.04 24.09,8.02 -8.02,-24.03 0.07,-0.12 z"
       fill="#ffb300"
       id="path2" />
    <circle
       cx="64"
       cy="64"
       r="42.459999"
       fill="#ffb300"
       id="circle13" />
    <g
       id="g888">
      <path
         style="fill:url(#IconifyId17ecdb2904d178eab20564)"
         id="path11"
         fill="url(#IconifyId17ecdb2904d178eab20564)"
         d="M 126.99,80.89 108.1,64.13 108.16,63.83 127,47.14 102.17,42.05 102.1,41.93 110.1,17.88 86.08,25.9 85.96,25.82 80.86,1 64.01,20.03 H 63.99 L 47.11,1.01 42.03,25.89 41.97,25.92 17.9,17.88 l 8,24.05 c -0.04,0.04 -0.07,0.09 -0.11,0.13 l -24.78,5.05 19,16.87 -0.01,0.05 -19,16.83 24.89,5.11 0.02,0.04 -8.02,24.11 24.05,-8.03 0.1,0.08 5.1,24.83 16.84,-19.01 h 0.05 l 16.87,19 5.07,-24.86 0.07,-0.04 24.09,8.02 -8.02,-24.03 0.07,-0.12 z" />
      <circle
         style="fill:url(#IconifyId17ecdb2904d178eab20565)"
         id="circle22"
         fill="url(#IconifyId17ecdb2904d178eab20565)"
         r="42.459999"
         cy="64"
         cx="64" />
      <g
         id="g28"
         fill="#5d4037">
        <ellipse
           id="ellipse24"
           ry="6.1700001"
           rx="5.25"
           cy="54.290001"
           cx="46.799999" />
        <ellipse
           id="ellipse26"
           ry="6.1700001"
           rx="5.25"
           cy="54.290001"
           cx="81.199997" />
      </g>
      <path
         id="path30"
         fill="#5d4037"
         d="m 75.81,75.67 c -1.7,1.11 -5.31,3.72 -11.82,3.72 -6.51,0 -10.4,-2.54 -11.99,-3.85 -0.73,-0.61 -1.66,-1.1 -2.34,-0.59 -0.68,0.51 -0.81,1.55 -0.33,2.29 1.84,2.85 6.71,7.13 14.65,7.27 7.94,-0.14 12.81,-4.42 14.65,-7.27 0.4,-0.62 0.44,-1.51 -0.03,-1.99 -0.61,-0.64 -1.75,-0.26 -2.79,0.42 z" />
      <path
         id="path32"
         fill="#de7321"
         d="m 58.89,69.52 c -1.39,-1.42 -0.11,-2.17 1.42,-1.74 1.93,0.54 5.01,0.28 5.81,-1.3 1.52,-3.04 -0.38,-4.76 -2.74,-10.02 -2.46,-5.5 0.63,-11.49 4.2,-11.8 2.86,-0.24 1.91,1.12 1.01,1.7 -1.75,1.14 -3.6,4.93 -0.77,9.17 4.82,7.21 4.82,10.62 2.33,14.06 -1.61,2.22 -7.35,3.94 -11.26,-0.07 z" />
      <path
         style="fill:url(#IconifyId17ecdb2904d178eab20566)"
         id="path39"
         fill="url(#IconifyId17ecdb2904d178eab20566)"
         opacity="0.65"
         d="m 50.38,71.89 c -1.63,3.93 -7.05,5.42 -12.12,3.33 -5.06,-2.09 -7.85,-6.98 -6.22,-10.91 1.63,-3.93 7.05,-5.42 12.12,-3.33 5.06,2.09 7.85,6.98 6.22,10.91 z" />
      <path
         style="fill:url(#IconifyId17ecdb2904d178eab20567)"
         id="path46"
         fill="url(#IconifyId17ecdb2904d178eab20567)"
         opacity="0.65"
         d="m 77.62,71.89 c 1.63,3.93 7.05,5.42 12.12,3.33 5.06,-2.09 7.85,-6.98 6.22,-10.91 -1.63,-3.93 -7.05,-5.42 -12.12,-3.33 -5.06,2.09 -7.85,6.98 -6.22,10.91 z" />
    </g>
  </g>
</svg>
